<svg width="64" height="64" viewBox="0 0 64 64" fill="none" xmlns="http://www.w3.org/2000/svg">
<path d="M15.4483 0H0V15.4483H15.4483V0ZM13.2414 13.2414H2.2069V2.2069H13.2414V13.2414ZM24.2759 6.62069H22.069V4.41379H19.8621V6.62069H17.6552V11.0345H24.2759V6.62069ZM22.069 0H19.8621V2.2069H22.069V0ZM17.6552 2.2069V4.41379H19.8621V2.2069H17.6552ZM26.4828 0H24.2759V4.41379H26.4828V0ZM30.8966 6.62069H35.3103V0H33.1034V2.2069H30.8966V0H28.6897V4.41379H30.8966V6.62069ZM26.4828 8.82759H30.8966V6.62069H26.4828V8.82759ZM37.5172 17.6552H35.3103V19.8621H37.5172V17.6552ZM15.4483 19.8621V17.6552H6.62069V19.8621H4.41379V17.6552H2.2069V19.8621H0V26.4828H2.2069V22.069H4.41379V24.2759H8.82759V19.8621H11.0345V22.069H13.2414V19.8621H15.4483ZM8.82759 44.1379H6.62069V41.931H4.41379V39.7241H2.2069V35.3103H0V46.3448H17.6552V44.1379H11.0345V41.931H8.82759V44.1379ZM30.8966 28.6897H33.1034V26.4828H35.3103V24.2759H30.8966V22.069H35.3103V19.8621H33.1034V13.2414H30.8966V15.4483H28.6897V13.2414H30.8966V11.0345H26.4828V17.6552H28.6897V26.4828H30.8966V28.6897ZM6.62069 30.8966V33.1034H11.0345V30.8966H8.82759V28.6897H4.41379V26.4828H2.2069V30.8966H6.62069ZM13.2414 30.8966V33.1034H15.4483V35.3103H17.6552V33.1034H19.8621V30.8966H17.6552V28.6897H15.4483V30.8966H13.2414ZM13.2414 33.1034H11.0345V35.3103H8.82759V37.5172H11.0345V41.931H19.8621V37.5172H15.4483V39.7241H13.2414V37.5172H15.4483V35.3103H13.2414V33.1034ZM13.2414 30.8966V28.6897H11.0345V30.8966H13.2414ZM28.6897 30.8966H30.8966V28.6897H28.6897V26.4828H24.2759V24.2759H22.069V22.069H24.2759V19.8621H19.8621V17.6552H24.2759V13.2414H22.069V15.4483H19.8621V13.2414H17.6552V22.069H19.8621V28.6897H26.4828V33.1034H28.6897V30.8966ZM52.9655 37.5172V35.3103H50.7586V37.5172H52.9655ZM35.3103 37.5172V35.3103H33.1034V37.5172H35.3103ZM44.1379 24.2759H39.7241V22.069H37.5172V26.4828H41.931V28.6897H44.1379V24.2759ZM33.1034 44.1379H30.8966V46.3448H33.1034V44.1379ZM48.5517 35.3103H50.7586V33.1034H46.3448V37.5172H48.5517V35.3103ZM33.1034 35.3103V33.1034H28.6897V35.3103H26.4828V37.5172H28.6897V39.7241H30.8966V35.3103H33.1034ZM22.069 52.9655V50.7586H17.6552V57.3793H19.8621V52.9655H22.069ZM30.8966 39.7241V41.931H33.1034V39.7241H30.8966ZM39.7241 28.6897V30.8966H41.931V28.6897H39.7241ZM33.1034 57.3793V59.5862H35.3103V57.3793H33.1034ZM17.6552 59.5862V61.7931H19.8621V59.5862H17.6552ZM33.1034 64H35.3103V61.7931H33.1034V64ZM30.8966 55.1724H33.1034V52.9655H30.8966V55.1724ZM35.3103 61.7931H37.5172V59.5862H35.3103V61.7931ZM44.1379 64H46.3448V61.7931H44.1379V64ZM64 33.1034V28.6897H61.7931V33.1034H64ZM64 39.7241H61.7931V41.931H64V39.7241ZM19.8621 48.5517V46.3448H17.6552V48.5517H19.8621ZM22.069 35.3103V33.1034H19.8621V35.3103H22.069ZM15.4483 26.4828H13.2414V28.6897H15.4483V26.4828ZM22.069 46.3448V48.5517H24.2759V46.3448H22.069ZM11.0345 26.4828H8.82759V28.6897H11.0345V26.4828ZM4.41379 39.7241H8.82759V37.5172H6.62069V33.1034H2.2069V35.3103H4.41379V39.7241ZM24.2759 39.7241V37.5172H22.069V41.931H24.2759V44.1379H26.4828V39.7241H24.2759ZM24.2759 33.1034V35.3103H26.4828V33.1034H24.2759ZM13.2414 24.2759H17.6552V22.069H13.2414V24.2759ZM39.7241 59.5862V61.7931H44.1379V59.5862H39.7241ZM35.3103 8.82759V11.0345H37.5172V8.82759H35.3103ZM37.5172 13.2414H39.7241V15.4483H41.931V11.0345H37.5172V13.2414ZM35.3103 15.4483H37.5172V13.2414H35.3103V15.4483ZM39.7241 6.62069H37.5172V8.82759H39.7241V6.62069ZM52.9655 41.931V44.1379H50.7586V41.931H46.3448V37.5172H44.1379V30.8966H41.931V35.3103H37.5172V39.7241H35.3103V41.931H33.1034V44.1379H35.3103V46.3448H37.5172V48.5517H41.931V46.3448H44.1379V48.5517H41.931V50.7586H44.1379V52.9655H41.931V55.1724H44.1379V59.5862H46.3448V61.7931H48.5517V55.1724H50.7586V57.3793H52.9655V55.1724H55.1724V52.9655H57.3793V50.7586H55.1724V48.5517H57.3793V50.7586H59.5862V48.5517H61.7931V46.3448H59.5862V44.1379H61.7931V41.931H57.3793V39.7241H55.1724V41.931H52.9655ZM41.931 44.1379H37.5172V41.931H39.7241V39.7241H41.931V44.1379ZM52.9655 52.9655H46.3448V46.3448H52.9655V52.9655ZM41.931 22.069H44.1379V17.6552H41.931V22.069ZM46.3448 8.82759V4.41379H44.1379V0H39.7241V4.41379H41.931V11.0345H44.1379V8.82759H46.3448ZM52.9655 39.7241H55.1724V37.5172H52.9655V39.7241ZM55.1724 37.5172H57.3793V35.3103H59.5862V33.1034H57.3793V30.8966H55.1724V37.5172ZM50.7586 22.069H48.5517V24.2759H50.7586V22.069ZM57.3793 30.8966H59.5862V28.6897H57.3793V30.8966ZM52.9655 28.6897V30.8966H55.1724V28.6897H52.9655ZM59.5862 28.6897H61.7931V26.4828H59.5862V28.6897ZM61.7931 26.4828H64V24.2759H61.7931V26.4828ZM48.5517 26.4828V24.2759H46.3448V28.6897H48.5517V30.8966H50.7586V28.6897H52.9655V26.4828H48.5517ZM55.1724 26.4828H57.3793V24.2759H59.5862V22.069H61.7931V17.6552H59.5862V19.8621H57.3793V17.6552H52.9655V19.8621H50.7586V22.069H55.1724V26.4828ZM52.9655 57.3793V61.7931H48.5517V64H55.1724V61.7931H59.5862V59.5862H61.7931V61.7931H64V57.3793H61.7931V55.1724H64V50.7586H59.5862V57.3793H52.9655ZM44.1379 11.0345V17.6552H46.3448V11.0345H44.1379ZM46.3448 17.6552V19.8621H50.7586V17.6552H46.3448ZM41.931 57.3793V55.1724H39.7241V52.9655H37.5172V59.5862H39.7241V57.3793H41.931ZM41.931 50.7586H39.7241V52.9655H41.931V50.7586ZM33.1034 48.5517H30.8966V46.3448H28.6897V44.1379H26.4828V48.5517H24.2759V52.9655H22.069V57.3793H24.2759V61.7931H19.8621V64H28.6897V61.7931H26.4828V52.9655H30.8966V50.7586H33.1034V52.9655H35.3103V46.3448H33.1034V48.5517ZM22.069 57.3793H19.8621V59.5862H22.069V57.3793ZM48.5517 0V15.4483H64V0H48.5517ZM61.7931 13.2414H50.7586V2.2069H61.7931V13.2414ZM11.0345 4.41379H4.41379V11.0345H11.0345V4.41379ZM59.5862 4.41379H52.9655V11.0345H59.5862V4.41379ZM35.3103 33.1034H37.5172V30.8966H35.3103V33.1034ZM0 64H15.4483V48.5517H0V64ZM2.2069 50.7586H13.2414V61.7931H2.2069V50.7586ZM50.7586 48.5517H48.5517V50.7586H50.7586V48.5517ZM4.41379 59.5862H11.0345V52.9655H4.41379V59.5862Z" fill="black"/>
</svg>
